<svg xmlns="http://www.w3.org/2000/svg" xmlns:xlink="http://www.w3.org/1999/xlink" version="1.1" enable-background="new 0 0 1000 1000" xml:space="preserve" width="1000" height="1000"><rect id="backgroundrect" width="100%" height="100%" x="0" y="0" fill="none" stroke="none"/>
<metadata> Svg Vector Icons : http://www.onlinewebfonts.com/icon </metadata>

<g class="currentLayer" style=""><title>Layer 1</title><g id="svg_1" class="selected" fill="#ffffff" fill-opacity="1"><g id="svg_2" fill="#ffffff" fill-opacity="1"><path d="M974.3,494.5c-22,0-43.9,0-66.2,0c-6,0-16-0.4-16-6.4c0-22.4,0-44.4,0-66.8c0-6,0.3-13.9-5.7-13.9c-22.4,0-44.3,0-66.5,0c-6,0-14.9-1.9-14.9-7.9c0-22.2,0-44.1,0-66.5c0-6-0.9-12.8-6.9-12.8c-22.4,0-44.3,0-66.3,0c-6,0-13.9-3-13.9-9c0-22.7,0-44.8,0-66.8c0-6-3.4-10.8-9.4-10.8c-21.7,0.2-44,0.2-66.5,0.2c-6,0-11.2,4.9-11.2,10.9c0,22.5,0,44.4,0,66.2c0,6-2.8,9.3-8.8,9.3c-81.7,0-162.6,0-244.3,0c-6,0-8.3-3.3-8.3-9.3c0-22.1,0-44.1,0-66.3c0-6-6.2-10.9-12.2-10.9c-22.3,0-43.3,0-64.8-0.2c-6,0-10.1,4.8-10.1,10.8c0,22.2,0,44.5,0,67.4c0,6-7.7,8.5-13.8,8.5c-22.5,0-44.5,0-66.9,0c-6,0-6.5,7.3-6.5,13.3c0,22.4,0,44.3,0,66.6c0,6-9.3,7.2-15.3,7.2c-22.4,0-44.4,0-66.6,0c-6,0-16,8.5-16,14.5c0,22.3,0,44.2,0,66.7c0,6,0.3,5.9-5.7,5.9c-22.1,0-43.9,0-65.6,0c-6,0-15.7,9.8-15.7,15.9c0,81.1,0,161.3,0,241.5c0,6,9.7,14.9,15.7,14.9c21.9,0,43.5,0,65.6,0c6,0,5.8-8.9,5.8-14.9c0-51.5,0-102.5,0-153.7c0-6,10-5.6,16-5.6c22.5,0,44.7,0,67.3,0c6,0,14.7-0.4,14.7,5.6c0,51.6,0,102.9,0,154.7c0,6,3,10.9,9,10.9c22.3,0,44.9,0,66.4,0.2c6,0.1,11.7-4.8,11.7-10.8c0-22.1,0-44.2,0-66.4c0-6,1.4-7.1,7.4-7.1c140.8,0,280.7,0,420.9,0c6,0,10.9,3,10.9,9c0,22.3,0,44.9-0.2,66.6c0,6,4.8,11.5,10.8,11.5c21.9,0,43.9,0,66.3,0c6,0,6.7-7.9,6.7-14c0-52,0-103.1,0-154.5c0-6,9.1-5.8,15.1-5.8c22.7,0,45,0,67.7,0c6,0,15.2-0.2,15.2,5.8c0,51.5,0,102.5,0,153.5c0,6,0.6,14.9,6.6,14.9c22,0,43.4,0,64.8,0c6,0,15.8-8.9,15.8-14.9c0-80.8,0-161,0-241.9C990,503.9,980.3,494.5,974.3,494.5z M369.3,487.7c0,6-6.8,6.9-12.8,6.9c-22.1,0-44.1,0-66.5,0c-6,0-7.8-0.9-7.8-6.9c0-22,0-43.9,0-66.4c0-6,1.8-13.8,7.8-13.8c22.3,0,44.3,0,66.5,0c6,0,12.8,7.8,12.8,13.9C369.3,443.4,369.3,465.4,369.3,487.7z M717.8,487.9c0,6-1.8,6.7-7.8,6.7c-22,0-44,0-66.4,0c-6,0-12.9-0.7-12.9-6.7c0-22.3,0-44.2,0-66.4c0-6,6.9-14,12.9-14c22.2,0,44.1,0,66.4,0c6,0,7.8,7.9,7.8,14C717.8,443.4,717.8,465.5,717.8,487.9z" id="svg_3" fill="#ffffff" fill-opacity="1"/><path d="M444.7,764.5c-16.4,0-32.9,0-49,0c-35.2-0.1-70.7-0.3-105.9-0.4c-6,0-10.9,4.8-10.9,10.9c0.2,21.8,0.1,45,0.2,66.8c0,6,4.8,12.2,10.8,12.2c52.4,0,103.2,0,154,0c6,0,12.5-7.5,12.5-13.5c0-21.7,0-43.2,0-65C456.4,769.4,450.8,764.5,444.7,764.5z" id="svg_4" fill="#ffffff" fill-opacity="1"/><path d="M714.3,764.3c-1.7,0.1-2.6,1.3-4.3,1.3c-51.8,0-102.9,1.2-154.7,1.2c-1.7,0-3.3,0-4.9,0c-2.7,0-6.8,2.6-6.8,8.6c0,22.2,0,43.7,0,65.1c0,6,6.7,13.3,12.7,13.3c51.2,0,102.1,0,153.9,0c6,0,7.6-7.3,7.6-13.3c0-22.2,0-44.1,0-65.9C717.8,768.6,717.1,764.1,714.3,764.3z" id="svg_5" fill="#ffffff" fill-opacity="1"/><path d="M202.5,233.2c22.2,0,44.1,0,65.9,0c6,0,10.8-4.7,10.8-10.7c-0.2-21.8-0.2-43.7-0.2-65.5c0-6-4.9-10.9-10.9-10.9c-22.6,0-44.1,0-65.6,0c-6,0-7.4,5.1-7.4,11.1c0,21.8,0,43.3,0,65.5C195.1,228.7,196.5,233.2,202.5,233.2z" id="svg_6" fill="#ffffff" fill-opacity="1"/><path d="M730.3,233.8c21.8-0.2,42.8-0.2,64.6-0.2c6,0,10-4.9,10-10.9c0-22.6,0-44.2,0-65.6c0-6-1.5-11-7.5-11c-21.8,0-43.3,0-65.5,0c-6,0-14.2,5-14.2,11c0,22.2,0,44.1,0,65.9C717.8,229,724.3,233.9,730.3,233.8z" id="svg_7" fill="#ffffff" fill-opacity="1"/></g><g id="svg_8" fill="#ffffff" fill-opacity="1"/><g id="svg_9" fill="#ffffff" fill-opacity="1"/><g id="svg_10" fill="#ffffff" fill-opacity="1"/><g id="svg_11" fill="#ffffff" fill-opacity="1"/><g id="svg_12" fill="#ffffff" fill-opacity="1"/><g id="svg_13" fill="#ffffff" fill-opacity="1"/><g id="svg_14" fill="#ffffff" fill-opacity="1"/><g id="svg_15" fill="#ffffff" fill-opacity="1"/><g id="svg_16" fill="#ffffff" fill-opacity="1"/><g id="svg_17" fill="#ffffff" fill-opacity="1"/><g id="svg_18" fill="#ffffff" fill-opacity="1"/><g id="svg_19" fill="#ffffff" fill-opacity="1"/><g id="svg_20" fill="#ffffff" fill-opacity="1"/><g id="svg_21" fill="#ffffff" fill-opacity="1"/><g id="svg_22" fill="#ffffff" fill-opacity="1"/></g></g></svg>